<mxfile host="65bd71144e">
    <diagram id="5BXfaSnjgzXeYSLmD9ST" name="Page-1">
        <mxGraphModel dx="3856" dy="2071" grid="1" gridSize="10" guides="1" tooltips="1" connect="1" arrows="1" fold="1" page="1" pageScale="1" pageWidth="827" pageHeight="1169" math="0" shadow="0">
            <root>
                <mxCell id="0"/>
                <mxCell id="1" parent="0"/>
                <mxCell id="2" value="&lt;font style=&quot;font-size: 14px;&quot;&gt;&lt;b style=&quot;&quot;&gt;&lt;font face=&quot;Arial&quot; style=&quot;color: rgb(0, 0, 0);&quot;&gt;Miscellaneous&lt;/font&gt;&lt;/b&gt;&lt;/font&gt;&lt;div&gt;&lt;font face=&quot;Arial&quot;&gt;&lt;span style=&quot;font-size: 14px;&quot;&gt;&lt;i style=&quot;&quot;&gt;&lt;font style=&quot;color: rgb(0, 0, 0);&quot;&gt;Auxilia&lt;/font&gt;&lt;font style=&quot;color: rgb(0, 0, 0);&quot;&gt;ry&lt;/font&gt;&lt;font style=&quot;color: rgb(0, 0, 0);&quot;&gt; (stand-alone) methods&lt;/font&gt;&lt;/i&gt;&lt;b style=&quot;color: light-dark(rgb(0, 0, 0), rgb(237, 237, 237));&quot;&gt;&amp;nbsp;&lt;br&gt;&lt;/b&gt;&lt;/span&gt;&lt;/font&gt;&lt;div&gt;&lt;div&gt;&lt;span style=&quot;font-size: 14px;&quot;&gt;&lt;i&gt;&lt;font face=&quot;Arial&quot; style=&quot;color: rgb(0, 0, 0);&quot;&gt;&lt;br&gt;&lt;/font&gt;&lt;/i&gt;&lt;/span&gt;&lt;div&gt;&lt;div style=&quot;&quot;&gt;&lt;font&gt;&lt;span style=&quot;font-size: 14px;&quot;&gt;&lt;font face=&quot;Arial&quot; style=&quot;color: rgb(0, 0, 0);&quot;&gt;+ Helper functions&lt;/font&gt;&lt;/span&gt;&lt;/font&gt;&lt;/div&gt;&lt;div style=&quot;&quot;&gt;&lt;font&gt;&lt;span style=&quot;font-size: 14px;&quot;&gt;&lt;font face=&quot;Arial&quot; style=&quot;color: rgb(0, 0, 0);&quot;&gt;+ Spatial tiling schemes&lt;/font&gt;&lt;/span&gt;&lt;/font&gt;&lt;/div&gt;&lt;/div&gt;&lt;/div&gt;&lt;div style=&quot;&quot;&gt;&lt;font&gt;&lt;span style=&quot;font-size: 14px;&quot;&gt;&lt;font face=&quot;Arial&quot; style=&quot;color: rgb(0, 0, 0);&quot;&gt;+ Visualization&lt;/font&gt;&lt;/span&gt;&lt;/font&gt;&lt;/div&gt;&lt;div style=&quot;&quot;&gt;&lt;font style=&quot;&quot;&gt;&lt;span style=&quot;font-size: 14px;&quot;&gt;&lt;font face=&quot;Arial&quot; style=&quot;color: rgb(0, 0, 0);&quot;&gt;+ Image post-processing&lt;/font&gt;&lt;/span&gt;&lt;/font&gt;&lt;/div&gt;&lt;/div&gt;&lt;/div&gt;" style="whiteSpace=wrap;html=1;align=left;spacing=14;verticalAlign=top;strokeWidth=2;strokeColor=#000000;fillColor=#E6E6E6;rounded=0;" vertex="1" parent="1">
                    <mxGeometry x="-729.74" y="50" width="300" height="150" as="geometry"/>
                </mxCell>
                <mxCell id="3" value="&lt;font style=&quot;font-size: 14px;&quot;&gt;&lt;b style=&quot;&quot;&gt;&lt;font face=&quot;Arial&quot; style=&quot;color: rgb(0, 51, 26);&quot;&gt;Level-2&lt;/font&gt;&lt;/b&gt;&lt;/font&gt;&lt;div&gt;&lt;font style=&quot;font-size: 14px;&quot;&gt;&lt;i style=&quot;&quot;&gt;&lt;font face=&quot;Arial&quot; style=&quot;color: rgb(0, 51, 26);&quot;&gt;Harmonized and consistent imagery&lt;br&gt;&lt;br&gt;&lt;/font&gt;&lt;/i&gt;&lt;/font&gt;&lt;/div&gt;&lt;div&gt;&lt;div&gt;&lt;div style=&quot;font-weight: 700;&quot;&gt;&lt;span style=&quot;font-weight: 400; background-color: transparent;&quot;&gt;&lt;font face=&quot;Arial&quot; style=&quot;font-size: 14px; color: rgb(0, 51, 26);&quot;&gt;+ Spatial and temporal filter&lt;/font&gt;&lt;/span&gt;&lt;/div&gt;&lt;div style=&quot;font-weight: 700;&quot;&gt;&lt;span style=&quot;font-weight: 400;&quot;&gt;&lt;font face=&quot;Arial&quot; style=&quot;font-size: 14px; color: rgb(0, 51, 26);&quot;&gt;+ Data quality settings&lt;/font&gt;&lt;/span&gt;&lt;/div&gt;&lt;div style=&quot;font-weight: 700;&quot;&gt;&lt;span style=&quot;font-weight: 400;&quot;&gt;&lt;font face=&quot;Arial&quot; style=&quot;font-size: 14px; color: rgb(0, 51, 26);&quot;&gt;+ Pixel masking&lt;/font&gt;&lt;/span&gt;&lt;/div&gt;&lt;/div&gt;&lt;div style=&quot;font-weight: 700;&quot;&gt;&lt;div style=&quot;font-weight: 400; font-size: 14px;&quot;&gt;&lt;font face=&quot;Arial&quot; style=&quot;color: rgb(0, 51, 26);&quot;&gt;+ Feature selection and calculation&lt;/font&gt;&lt;/div&gt;&lt;div style=&quot;font-weight: 400; font-size: 14px;&quot;&gt;&lt;font face=&quot;Arial&quot; style=&quot;color: rgb(0, 51, 26);&quot;&gt;+ Spectral unmixing&lt;/font&gt;&lt;/div&gt;&lt;div style=&quot;font-weight: 400; font-size: 14px;&quot;&gt;&lt;font face=&quot;Arial&quot; style=&quot;color: rgb(0, 51, 26);&quot;&gt;&lt;br&gt;&lt;/font&gt;&lt;/div&gt;&lt;div style=&quot;font-weight: 400; font-size: 14px;&quot;&gt;&lt;font face=&quot;Arial&quot; style=&quot;color: rgb(0, 51, 26);&quot;&gt;&amp;gt; Time Series Stack (TSS)&lt;/font&gt;&lt;/div&gt;&lt;div style=&quot;font-weight: 400; font-size: 14px;&quot;&gt;&lt;font face=&quot;Arial&quot; style=&quot;color: rgb(0, 51, 26);&quot;&gt;&amp;gt; Custom Image Collection (CIC)&lt;/font&gt;&lt;/div&gt;&lt;div style=&quot;font-weight: 400; font-size: 14px;&quot;&gt;&lt;font face=&quot;Arial&quot; style=&quot;color: rgb(0, 51, 26);&quot;&gt;&amp;gt; Time Series Mosaic (TSM)&lt;/font&gt;&lt;/div&gt;&lt;/div&gt;&lt;/div&gt;" style="whiteSpace=wrap;html=1;align=left;spacing=14;verticalAlign=top;strokeWidth=2;strokeColor=#00331A;fillColor=#CCFFE6;rounded=0;gradientColor=none;fillStyle=solid;opacity=70;fontColor=#000066;" vertex="1" parent="1">
                    <mxGeometry x="-729.74" y="200" width="300" height="230" as="geometry"/>
                </mxCell>
                <mxCell id="4" value="&lt;font style=&quot;font-size: 14px;&quot;&gt;&lt;b style=&quot;&quot;&gt;&lt;font face=&quot;Arial&quot; style=&quot;color: rgb(0, 0, 102);&quot;&gt;Level-3&lt;/font&gt;&lt;/b&gt;&lt;/font&gt;&lt;div&gt;&lt;font style=&quot;font-size: 14px;&quot;&gt;&lt;i style=&quot;&quot;&gt;&lt;font face=&quot;Arial&quot; style=&quot;color: rgb(0, 0, 102);&quot;&gt;Advanced image products&lt;/font&gt;&lt;/i&gt;&lt;/font&gt;&lt;/div&gt;&lt;div&gt;&lt;span style=&quot;background-color: transparent; font-size: 14px;&quot;&gt;&lt;font face=&quot;Arial&quot; style=&quot;color: rgb(0, 0, 102);&quot;&gt;&lt;br&gt;&lt;/font&gt;&lt;/span&gt;&lt;/div&gt;&lt;div&gt;&lt;span style=&quot;background-color: transparent; font-size: 14px;&quot;&gt;&lt;font face=&quot;Arial&quot; style=&quot;color: rgb(0, 0, 102);&quot;&gt;+ Temporal folding&lt;/font&gt;&lt;/span&gt;&lt;/div&gt;&lt;div&gt;&lt;font&gt;&lt;span style=&quot;font-size: 14px;&quot;&gt;&lt;font face=&quot;Arial&quot; style=&quot;color: rgb(0, 0, 102);&quot;&gt;+ Interpolation&lt;/font&gt;&lt;/span&gt;&lt;/font&gt;&lt;/div&gt;&lt;div&gt;&lt;font&gt;&lt;span style=&quot;font-size: 14px;&quot;&gt;&lt;font face=&quot;Arial&quot; style=&quot;color: rgb(0, 0, 102);&quot;&gt;+ Statistical reducing&lt;/font&gt;&lt;/span&gt;&lt;/font&gt;&lt;/div&gt;&lt;div&gt;&lt;font&gt;&lt;span style=&quot;font-size: 14px;&quot;&gt;&lt;font face=&quot;Arial&quot; style=&quot;color: rgb(0, 0, 102);&quot;&gt;+ Compositing&lt;/font&gt;&lt;/span&gt;&lt;/font&gt;&lt;/div&gt;&lt;div&gt;&lt;font face=&quot;Arial&quot; style=&quot;color: rgb(0, 0, 102);&quot;&gt;&lt;br&gt;&lt;/font&gt;&lt;/div&gt;&lt;div&gt;&lt;div&gt;&lt;div style=&quot;font-weight: 700;&quot;&gt;&lt;span style=&quot;font-weight: 400; background-color: transparent;&quot;&gt;&lt;font face=&quot;Arial&quot; style=&quot;font-size: 14px; color: rgb(0, 0, 102);&quot;&gt;&amp;gt; Number of Valid Observations (NVO)&lt;/font&gt;&lt;/span&gt;&lt;/div&gt;&lt;div style=&quot;font-weight: 700;&quot;&gt;&lt;span style=&quot;font-weight: 400; background-color: transparent;&quot;&gt;&lt;font face=&quot;Arial&quot; style=&quot;font-size: 14px; color: rgb(0, 0, 102);&quot;&gt;&amp;gt; Time Series Interpolation (TSI)&lt;/font&gt;&lt;/span&gt;&lt;/div&gt;&lt;/div&gt;&lt;/div&gt;&lt;div style=&quot;&quot;&gt;&lt;span style=&quot;font-size: 14px;&quot;&gt;&lt;font face=&quot;Arial&quot; style=&quot;color: rgb(0, 0, 102);&quot;&gt;&amp;gt; Spectral Temporal Metrics (STM)&lt;/font&gt;&lt;/span&gt;&lt;/div&gt;&lt;div style=&quot;&quot;&gt;&lt;span style=&quot;font-size: 14px;&quot;&gt;&lt;font face=&quot;Arial&quot; style=&quot;color: rgb(0, 0, 102);&quot;&gt;&amp;gt; Pixel-Based Composits (PBC)&lt;/font&gt;&lt;/span&gt;&lt;/div&gt;" style="whiteSpace=wrap;html=1;align=left;spacing=14;verticalAlign=top;strokeWidth=2;strokeColor=#000066;fillColor=#CCCCFF;rounded=0;opacity=70;" vertex="1" parent="1">
                    <mxGeometry x="-729.74" y="430" width="300" height="230" as="geometry"/>
                </mxCell>
                <mxCell id="5" value="&lt;font style=&quot;font-size: 14px;&quot;&gt;&lt;b style=&quot;&quot;&gt;&lt;font face=&quot;Arial&quot; style=&quot;color: rgb(51, 0, 102);&quot;&gt;Level-4&lt;/font&gt;&lt;/b&gt;&lt;/font&gt;&lt;div&gt;&lt;font style=&quot;font-size: 14px;&quot;&gt;&lt;i style=&quot;&quot;&gt;&lt;font face=&quot;Arial&quot; style=&quot;color: rgb(51, 0, 102);&quot;&gt;Semantic products&lt;/font&gt;&lt;/i&gt;&lt;/font&gt;&lt;/div&gt;&lt;div&gt;&lt;font face=&quot;Arial&quot; style=&quot;color: rgb(51, 0, 102);&quot;&gt;&lt;br&gt;&lt;/font&gt;&lt;/div&gt;&lt;div&gt;&lt;div&gt;&lt;div style=&quot;font-weight: 700;&quot;&gt;&lt;span style=&quot;font-weight: 400; background-color: transparent;&quot;&gt;&lt;font face=&quot;Arial&quot; style=&quot;font-size: 14px; color: rgb(51, 0, 102);&quot;&gt;+ Phenometric calculation&lt;/font&gt;&lt;/span&gt;&lt;/div&gt;&lt;div style=&quot;font-weight: 700;&quot;&gt;&lt;font face=&quot;Arial&quot; style=&quot;color: rgb(51, 0, 102);&quot;&gt;&lt;br&gt;&lt;/font&gt;&lt;/div&gt;&lt;/div&gt;&lt;/div&gt;&lt;div style=&quot;font-weight: 700;&quot;&gt;&lt;span style=&quot;font-weight: 400; background-color: transparent;&quot;&gt;&lt;font face=&quot;Arial&quot; style=&quot;font-size: 14px; color: rgb(51, 0, 102);&quot;&gt;&amp;gt; Land Surface Phenology (LSP)&lt;/font&gt;&lt;/span&gt;&lt;/div&gt;" style="whiteSpace=wrap;html=1;align=left;spacing=14;verticalAlign=top;strokeWidth=2;strokeColor=#330066;fillColor=#E5CCFF;rounded=0;opacity=70;" vertex="1" parent="1">
                    <mxGeometry x="-730" y="660" width="300" height="130" as="geometry"/>
                </mxCell>
                <mxCell id="6" value="&lt;font style=&quot;font-size: 14px;&quot;&gt;&lt;b style=&quot;&quot;&gt;&lt;font face=&quot;Arial&quot; style=&quot;color: rgb(102, 51, 0);&quot;&gt;Export&lt;/font&gt;&lt;/b&gt;&lt;/font&gt;&lt;div&gt;&lt;span style=&quot;font-size: 14px; background-color: transparent;&quot;&gt;&lt;font&gt;&lt;i style=&quot;&quot;&gt;&lt;font face=&quot;Arial&quot; style=&quot;color: rgb(102, 51, 0);&quot;&gt;Image metadata and projection settings&lt;/font&gt;&lt;/i&gt;&lt;/font&gt;&lt;/span&gt;&lt;/div&gt;&lt;div style=&quot;font-weight: 700;&quot;&gt;&lt;font face=&quot;Arial&quot; style=&quot;color: rgb(102, 51, 0);&quot;&gt;&lt;br&gt;&lt;/font&gt;&lt;/div&gt;&lt;div style=&quot;&quot;&gt;&lt;font style=&quot;&quot;&gt;&lt;span style=&quot;font-size: 14px;&quot;&gt;&lt;font face=&quot;Arial&quot; style=&quot;color: rgb(102, 51, 0);&quot;&gt;&amp;gt; Image / Table&lt;/font&gt;&lt;/span&gt;&lt;/font&gt;&lt;/div&gt;" style="whiteSpace=wrap;html=1;align=left;spacing=14;verticalAlign=top;strokeWidth=2;strokeColor=#663300;fillColor=#FFE6CC;rounded=0;opacity=70;" vertex="1" parent="1">
                    <mxGeometry x="-730" y="790" width="300" height="110" as="geometry"/>
                </mxCell>
                <mxCell id="7" value="&lt;font style=&quot;font-size: 14px;&quot;&gt;&lt;b style=&quot;&quot;&gt;&lt;font style=&quot;color: rgb(0, 0, 0);&quot;&gt;Miscellaneous&lt;/font&gt;&lt;/b&gt;&lt;/font&gt;&lt;div&gt;&lt;font&gt;&lt;span style=&quot;font-size: 14px;&quot;&gt;&lt;i style=&quot;&quot;&gt;&lt;font style=&quot;color: rgb(0, 0, 0);&quot;&gt;Auxiliary (stand-alone) methods&lt;/font&gt;&lt;/i&gt;&lt;b style=&quot;&quot;&gt;&lt;font style=&quot;color: rgb(0, 0, 0);&quot;&gt;&amp;nbsp;&lt;/font&gt;&lt;br&gt;&lt;/b&gt;&lt;/span&gt;&lt;/font&gt;&lt;div&gt;&lt;div&gt;&lt;div style=&quot;font-family: Arial;&quot;&gt;&lt;br&gt;&lt;/div&gt;&lt;/div&gt;&lt;/div&gt;&lt;/div&gt;" style="whiteSpace=wrap;html=1;align=left;spacing=14;verticalAlign=top;strokeWidth=2;strokeColor=#000000;fillColor=#E6E6E6;rounded=0;" vertex="1" parent="1">
                    <mxGeometry x="-330.26" y="370" width="300" height="70" as="geometry"/>
                </mxCell>
                <mxCell id="8" value="&lt;font style=&quot;font-size: 14px;&quot;&gt;&lt;b style=&quot;&quot;&gt;&lt;font face=&quot;Arial&quot; style=&quot;color: rgb(0, 51, 26);&quot;&gt;Level-2&lt;/font&gt;&lt;/b&gt;&lt;/font&gt;&lt;div&gt;&lt;font style=&quot;font-size: 14px;&quot;&gt;&lt;i style=&quot;&quot;&gt;&lt;font face=&quot;Arial&quot; style=&quot;color: rgb(0, 51, 26);&quot;&gt;Harmonized and consistent imagery&lt;/font&gt;&lt;/i&gt;&lt;/font&gt;&lt;/div&gt;" style="whiteSpace=wrap;html=1;align=left;spacing=14;verticalAlign=top;strokeWidth=2;strokeColor=#00331A;fillColor=#CCFFE6;rounded=0;gradientColor=none;fillStyle=solid;opacity=70;fontColor=#000066;" vertex="1" parent="1">
                    <mxGeometry x="-330.26" y="440" width="300" height="70" as="geometry"/>
                </mxCell>
                <mxCell id="9" value="&lt;font style=&quot;font-size: 14px;&quot;&gt;&lt;b style=&quot;&quot;&gt;&lt;font face=&quot;Arial&quot; style=&quot;color: rgb(0, 0, 102);&quot;&gt;Level-3&lt;/font&gt;&lt;/b&gt;&lt;/font&gt;&lt;div&gt;&lt;font style=&quot;font-size: 14px;&quot;&gt;&lt;i style=&quot;&quot;&gt;&lt;font face=&quot;Arial&quot; style=&quot;color: rgb(0, 0, 102);&quot;&gt;Advanced image products&lt;/font&gt;&lt;/i&gt;&lt;/font&gt;&lt;/div&gt;&lt;div&gt;&lt;br&gt;&lt;/div&gt;" style="whiteSpace=wrap;html=1;align=left;spacing=14;verticalAlign=top;strokeWidth=2;strokeColor=#000066;fillColor=#CCCCFF;rounded=0;opacity=70;" vertex="1" parent="1">
                    <mxGeometry x="-330" y="510" width="300" height="70" as="geometry"/>
                </mxCell>
                <mxCell id="10" value="&lt;font style=&quot;font-size: 14px;&quot;&gt;&lt;b style=&quot;&quot;&gt;&lt;font face=&quot;Arial&quot; style=&quot;color: rgb(51, 0, 102);&quot;&gt;Level-4&lt;/font&gt;&lt;/b&gt;&lt;/font&gt;&lt;div&gt;&lt;font style=&quot;font-size: 14px;&quot;&gt;&lt;i style=&quot;&quot;&gt;&lt;font face=&quot;Arial&quot; style=&quot;color: rgb(51, 0, 102);&quot;&gt;Semantic products&lt;/font&gt;&lt;/i&gt;&lt;/font&gt;&lt;/div&gt;&lt;div&gt;&lt;br&gt;&lt;/div&gt;" style="whiteSpace=wrap;html=1;align=left;spacing=14;verticalAlign=top;strokeWidth=2;strokeColor=#330066;fillColor=#E5CCFF;rounded=0;opacity=70;" vertex="1" parent="1">
                    <mxGeometry x="-330" y="580" width="300" height="70" as="geometry"/>
                </mxCell>
                <mxCell id="11" value="&lt;font style=&quot;font-size: 14px;&quot;&gt;&lt;b style=&quot;&quot;&gt;&lt;font face=&quot;Arial&quot; style=&quot;color: rgb(102, 51, 0);&quot;&gt;Export&lt;/font&gt;&lt;/b&gt;&lt;/font&gt;&lt;div&gt;&lt;span style=&quot;font-size: 14px; background-color: transparent;&quot;&gt;&lt;font&gt;&lt;i style=&quot;&quot;&gt;&lt;font face=&quot;Arial&quot; style=&quot;color: rgb(102, 51, 0);&quot;&gt;Image metadata and projection settings&lt;/font&gt;&lt;/i&gt;&lt;/font&gt;&lt;/span&gt;&lt;/div&gt;&lt;div style=&quot;font-family: Arial; font-weight: 700;&quot;&gt;&lt;br&gt;&lt;/div&gt;" style="whiteSpace=wrap;html=1;align=left;spacing=14;verticalAlign=top;strokeWidth=2;strokeColor=#663300;fillColor=#FFE6CC;rounded=0;opacity=70;" vertex="1" parent="1">
                    <mxGeometry x="-330" y="650" width="300" height="70" as="geometry"/>
                </mxCell>
            </root>
        </mxGraphModel>
    </diagram>
</mxfile>